<svg width="54" height="49" viewBox="0 0 54 49" fill="none" xmlns="http://www.w3.org/2000/svg">
<g clip-path="url(#clip0_43_20)">
<path d="M46.92 37.126H44.214C43.95 37.566 43.642 38.006 43.29 38.446H44.478C44.434 38.534 44.346 38.644 44.214 38.776H41.31C41.134 38.952 40.958 39.128 40.782 39.304C40.65 39.436 40.474 39.59 40.254 39.766H40.188C39.968 39.942 39.726 40.118 39.462 40.294C39.242 40.426 39 40.58 38.736 40.756H37.548C37.152 41.02 36.712 41.262 36.228 41.482C35.744 41.658 35.26 41.856 34.776 42.076H34.512C34.38 42.12 34.226 42.164 34.05 42.208C33.918 42.252 33.742 42.318 33.522 42.406H41.046C40.87 42.45 40.672 42.494 40.452 42.538C40.276 42.582 40.078 42.648 39.858 42.736H36.558C35.986 42.868 35.392 42.978 34.776 43.066C34.16 43.198 33.522 43.308 32.862 43.396H30.882C30.178 43.484 29.43 43.55 28.638 43.594C27.846 43.638 27.01 43.66 26.13 43.66C25.294 43.66 24.502 43.638 23.754 43.594C23.05 43.55 22.368 43.484 21.708 43.396H23.622C23.006 43.308 22.412 43.198 21.84 43.066C21.268 42.978 20.718 42.868 20.19 42.736H23.49L22.368 42.406H14.844C14.712 42.318 14.558 42.252 14.382 42.208C14.25 42.164 14.096 42.12 13.92 42.076H14.118C13.634 41.856 13.15 41.636 12.666 41.416C12.226 41.196 11.786 40.976 11.346 40.756H12.534C12.27 40.58 12.006 40.426 11.742 40.294C11.522 40.118 11.302 39.942 11.082 39.766H11.214C10.994 39.59 10.796 39.436 10.62 39.304C10.444 39.128 10.268 38.952 10.092 38.776H12.93C12.886 38.688 12.842 38.622 12.798 38.578C12.754 38.534 12.71 38.49 12.666 38.446H11.412C11.236 38.226 11.06 38.006 10.884 37.786C10.708 37.566 10.532 37.346 10.356 37.126H13.128C12.952 36.906 12.82 36.686 12.732 36.466C12.644 36.202 12.556 35.982 12.468 35.806H11.214C11.126 35.63 11.082 35.52 11.082 35.476H9.036L8.838 34.816H7.32C7.276 34.684 7.254 34.486 7.254 34.222C7.254 33.87 7.276 33.628 7.32 33.496H7.782C8.002 32.968 8.354 32.638 8.838 32.506H8.706C8.794 32.462 8.948 32.44 9.168 32.44H20.916C20.96 32.44 21.004 32.462 21.048 32.506C21.136 32.506 21.202 32.506 21.246 32.506H21.378C21.73 32.594 22.038 32.726 22.302 32.902C22.61 33.078 22.918 33.276 23.226 33.496H22.83C23.182 33.716 23.556 33.936 23.952 34.156C24.348 34.332 24.81 34.42 25.338 34.42C25.69 34.42 26.02 34.354 26.328 34.222C26.636 34.046 26.812 33.804 26.856 33.496H27.054V33.43C27.054 33.034 26.966 32.726 26.79 32.506C26.614 32.242 26.328 32.022 25.932 31.846H25.14C24.7 31.626 24.106 31.406 23.358 31.186C22.654 30.966 21.664 30.746 20.388 30.526H20.982L19.926 30.328C19.574 30.24 19.222 30.174 18.87 30.13C18.518 30.042 18.166 29.954 17.814 29.866H18.078L16.956 29.536H17.088C16.516 29.36 15.966 29.162 15.438 28.942C14.91 28.722 14.404 28.48 13.92 28.216H14.184L12.6 27.226H12.468C12.16 27.006 11.874 26.786 11.61 26.566C11.39 26.346 11.17 26.126 10.95 25.906H9.564C9.52 25.818 9.476 25.752 9.432 25.708C9.388 25.664 9.344 25.62 9.3 25.576H9.894C9.762 25.444 9.674 25.334 9.63 25.246H7.782L7.056 24.256H9.894L9.498 23.596H8.574C8.354 23.112 8.178 22.672 8.046 22.276H8.442C8.442 22.188 8.42 22.122 8.376 22.078C8.376 22.034 8.376 21.99 8.376 21.946H11.478C11.478 21.77 11.434 21.55 11.346 21.286H5.538C5.538 21.11 5.538 20.956 5.538 20.824C5.494 20.648 5.45 20.472 5.406 20.296H5.472L5.406 19.636H9.828C9.784 19.548 9.762 19.438 9.762 19.306C9.762 19.13 9.762 18.976 9.762 18.844C9.806 18.668 9.828 18.492 9.828 18.316H6.726L6.792 17.656H9.762L9.96 16.996H8.64C8.684 16.908 8.728 16.798 8.772 16.666C8.816 16.534 8.86 16.424 8.904 16.336H8.376C8.464 16.16 8.552 16.006 8.64 15.874C8.728 15.698 8.794 15.522 8.838 15.346H9.102L9.498 14.686H9.432C9.52 14.51 9.63 14.356 9.762 14.224C9.894 14.048 10.026 13.872 10.158 13.696C10.29 13.52 10.422 13.366 10.554 13.234C10.686 13.058 10.84 12.882 11.016 12.706H10.884L11.214 12.376H11.148C11.192 12.288 11.236 12.222 11.28 12.178C11.368 12.134 11.434 12.09 11.478 12.046H11.61L12.402 11.386C12.49 11.298 12.556 11.232 12.6 11.188C12.688 11.144 12.776 11.1 12.864 11.056H11.61C12.358 10.572 13.172 10.132 14.052 9.736H16.098C16.23 9.648 16.362 9.582 16.494 9.538C16.626 9.494 16.78 9.45 16.956 9.406H12.468C12.644 9.318 12.798 9.252 12.93 9.208C13.106 9.164 13.282 9.12 13.458 9.076H16.296C17.396 8.724 18.562 8.46 19.794 8.284C21.07 8.108 22.412 8.02 23.82 8.02C25.272 8.02 26.636 8.108 27.912 8.284C29.188 8.46 30.376 8.724 31.476 9.076H28.638C28.814 9.12 28.968 9.164 29.1 9.208C29.276 9.252 29.452 9.318 29.628 9.406H34.05L34.974 9.736H32.928C33.412 9.912 33.874 10.132 34.314 10.396C34.754 10.616 35.172 10.836 35.568 11.056H36.822L37.35 11.386H37.416C37.592 11.474 37.746 11.584 37.878 11.716C38.054 11.848 38.208 11.958 38.34 12.046H38.274L38.67 12.376H38.736L39.132 12.706H39.264C39.66 13.014 39.99 13.344 40.254 13.696C40.606 14.004 40.87 14.334 41.046 14.686H41.112L41.508 15.346H41.178C41.266 15.522 41.354 15.698 41.442 15.874C41.53 16.006 41.596 16.16 41.64 16.336H42.102L42.3 16.996H43.554L43.62 17.458V17.656H44.742C44.742 17.832 44.698 18.052 44.61 18.316C44.302 18.932 43.862 19.24 43.29 19.24H32.202C31.762 19.24 31.344 19.152 30.948 18.976C30.596 18.756 30.244 18.536 29.892 18.316C29.584 18.096 29.232 17.876 28.836 17.656H27.714C27.274 17.392 26.79 17.26 26.262 17.26C25.822 17.26 25.47 17.392 25.206 17.656H22.302C22.082 17.876 21.972 18.096 21.972 18.316H25.074C25.074 18.536 25.118 18.756 25.206 18.976C25.294 19.196 25.492 19.416 25.8 19.636H21.444C21.664 19.724 21.906 19.834 22.17 19.966C22.434 20.098 22.764 20.208 23.16 20.296H23.094C23.622 20.472 24.282 20.626 25.074 20.758C25.91 20.89 26.878 21.044 27.978 21.22C28.066 21.22 28.132 21.242 28.176 21.286C28.264 21.286 28.33 21.286 28.374 21.286H34.182C34.71 21.374 35.216 21.484 35.7 21.616C36.228 21.704 36.712 21.814 37.152 21.946H34.05C34.226 21.99 34.38 22.034 34.512 22.078C34.688 22.122 34.864 22.188 35.04 22.276H34.644C35.216 22.452 35.722 22.65 36.162 22.87C36.646 23.09 37.108 23.332 37.548 23.596H38.538L39.594 24.256H36.756C36.976 24.432 37.196 24.608 37.416 24.784C37.636 24.916 37.834 25.07 38.01 25.246H39.858L40.188 25.576H39.594L39.924 25.906H41.244C41.728 26.39 42.08 26.83 42.3 27.226H42.432C42.564 27.402 42.674 27.578 42.762 27.754C42.85 27.886 42.938 28.04 43.026 28.216H42.762C42.85 28.436 42.938 28.656 43.026 28.876C43.158 29.096 43.246 29.316 43.29 29.536H43.092L43.224 29.866H42.96C43.004 29.954 43.026 30.064 43.026 30.196C43.026 30.328 43.048 30.438 43.092 30.526H42.498C42.63 30.966 42.696 31.406 42.696 31.846H43.554V32.308C43.554 32.484 43.532 32.682 43.488 32.902C43.488 33.078 43.488 33.276 43.488 33.496H43.29C43.246 33.716 43.202 33.936 43.158 34.156C43.158 34.376 43.114 34.596 43.026 34.816H44.544C44.544 35.036 44.478 35.256 44.346 35.476H46.458C46.37 35.652 46.326 35.762 46.326 35.806H47.58C47.492 36.026 47.382 36.246 47.25 36.466C47.162 36.686 47.052 36.906 46.92 37.126Z" fill="#08FDD8" fill-opacity="0.55"/>
<mask id="mask0_43_20" style="mask-type:alpha" maskUnits="userSpaceOnUse" x="5" y="8" width="43" height="36">
<path d="M46.92 37.126H44.214C43.95 37.566 43.642 38.006 43.29 38.446H44.478C44.434 38.534 44.346 38.644 44.214 38.776H41.31C41.134 38.952 40.958 39.128 40.782 39.304C40.65 39.436 40.474 39.59 40.254 39.766H40.188C39.968 39.942 39.726 40.118 39.462 40.294C39.242 40.426 39 40.58 38.736 40.756H37.548C37.152 41.02 36.712 41.262 36.228 41.482C35.744 41.658 35.26 41.856 34.776 42.076H34.512C34.38 42.12 34.226 42.164 34.05 42.208C33.918 42.252 33.742 42.318 33.522 42.406H41.046C40.87 42.45 40.672 42.494 40.452 42.538C40.276 42.582 40.078 42.648 39.858 42.736H36.558C35.986 42.868 35.392 42.978 34.776 43.066C34.16 43.198 33.522 43.308 32.862 43.396H30.882C30.178 43.484 29.43 43.55 28.638 43.594C27.846 43.638 27.01 43.66 26.13 43.66C25.294 43.66 24.502 43.638 23.754 43.594C23.05 43.55 22.368 43.484 21.708 43.396H23.622C23.006 43.308 22.412 43.198 21.84 43.066C21.268 42.978 20.718 42.868 20.19 42.736H23.49L22.368 42.406H14.844C14.712 42.318 14.558 42.252 14.382 42.208C14.25 42.164 14.096 42.12 13.92 42.076H14.118C13.634 41.856 13.15 41.636 12.666 41.416C12.226 41.196 11.786 40.976 11.346 40.756H12.534C12.27 40.58 12.006 40.426 11.742 40.294C11.522 40.118 11.302 39.942 11.082 39.766H11.214C10.994 39.59 10.796 39.436 10.62 39.304C10.444 39.128 10.268 38.952 10.092 38.776H12.93C12.886 38.688 12.842 38.622 12.798 38.578C12.754 38.534 12.71 38.49 12.666 38.446H11.412C11.236 38.226 11.06 38.006 10.884 37.786C10.708 37.566 10.532 37.346 10.356 37.126H13.128C12.952 36.906 12.82 36.686 12.732 36.466C12.644 36.202 12.556 35.982 12.468 35.806H11.214C11.126 35.63 11.082 35.52 11.082 35.476H9.036L8.838 34.816H7.32C7.276 34.684 7.254 34.486 7.254 34.222C7.254 33.87 7.276 33.628 7.32 33.496H7.782C8.002 32.968 8.354 32.638 8.838 32.506H8.706C8.794 32.462 8.948 32.44 9.168 32.44H20.916C20.96 32.44 21.004 32.462 21.048 32.506C21.136 32.506 21.202 32.506 21.246 32.506H21.378C21.73 32.594 22.038 32.726 22.302 32.902C22.61 33.078 22.918 33.276 23.226 33.496H22.83C23.182 33.716 23.556 33.936 23.952 34.156C24.348 34.332 24.81 34.42 25.338 34.42C25.69 34.42 26.02 34.354 26.328 34.222C26.636 34.046 26.812 33.804 26.856 33.496H27.054V33.43C27.054 33.034 26.966 32.726 26.79 32.506C26.614 32.242 26.328 32.022 25.932 31.846H25.14C24.7 31.626 24.106 31.406 23.358 31.186C22.654 30.966 21.664 30.746 20.388 30.526H20.982L19.926 30.328C19.574 30.24 19.222 30.174 18.87 30.13C18.518 30.042 18.166 29.954 17.814 29.866H18.078L16.956 29.536H17.088C16.516 29.36 15.966 29.162 15.438 28.942C14.91 28.722 14.404 28.48 13.92 28.216H14.184L12.6 27.226H12.468C12.16 27.006 11.874 26.786 11.61 26.566C11.39 26.346 11.17 26.126 10.95 25.906H9.564C9.52 25.818 9.476 25.752 9.432 25.708C9.388 25.664 9.344 25.62 9.3 25.576H9.894C9.762 25.444 9.674 25.334 9.63 25.246H7.782L7.056 24.256H9.894L9.498 23.596H8.574C8.354 23.112 8.178 22.672 8.046 22.276H8.442C8.442 22.188 8.42 22.122 8.376 22.078C8.376 22.034 8.376 21.99 8.376 21.946H11.478C11.478 21.77 11.434 21.55 11.346 21.286H5.538C5.538 21.11 5.538 20.956 5.538 20.824C5.494 20.648 5.45 20.472 5.406 20.296H5.472L5.406 19.636H9.828C9.784 19.548 9.762 19.438 9.762 19.306C9.762 19.13 9.762 18.976 9.762 18.844C9.806 18.668 9.828 18.492 9.828 18.316H6.726L6.792 17.656H9.762L9.96 16.996H8.64C8.684 16.908 8.728 16.798 8.772 16.666C8.816 16.534 8.86 16.424 8.904 16.336H8.376C8.464 16.16 8.552 16.006 8.64 15.874C8.728 15.698 8.794 15.522 8.838 15.346H9.102L9.498 14.686H9.432C9.52 14.51 9.63 14.356 9.762 14.224C9.894 14.048 10.026 13.872 10.158 13.696C10.29 13.52 10.422 13.366 10.554 13.234C10.686 13.058 10.84 12.882 11.016 12.706H10.884L11.214 12.376H11.148C11.192 12.288 11.236 12.222 11.28 12.178C11.368 12.134 11.434 12.09 11.478 12.046H11.61L12.402 11.386C12.49 11.298 12.556 11.232 12.6 11.188C12.688 11.144 12.776 11.1 12.864 11.056H11.61C12.358 10.572 13.172 10.132 14.052 9.736H16.098C16.23 9.648 16.362 9.582 16.494 9.538C16.626 9.494 16.78 9.45 16.956 9.406H12.468C12.644 9.318 12.798 9.252 12.93 9.208C13.106 9.164 13.282 9.12 13.458 9.076H16.296C17.396 8.724 18.562 8.46 19.794 8.284C21.07 8.108 22.412 8.02 23.82 8.02C25.272 8.02 26.636 8.108 27.912 8.284C29.188 8.46 30.376 8.724 31.476 9.076H28.638C28.814 9.12 28.968 9.164 29.1 9.208C29.276 9.252 29.452 9.318 29.628 9.406H34.05L34.974 9.736H32.928C33.412 9.912 33.874 10.132 34.314 10.396C34.754 10.616 35.172 10.836 35.568 11.056H36.822L37.35 11.386H37.416C37.592 11.474 37.746 11.584 37.878 11.716C38.054 11.848 38.208 11.958 38.34 12.046H38.274L38.67 12.376H38.736L39.132 12.706H39.264C39.66 13.014 39.99 13.344 40.254 13.696C40.606 14.004 40.87 14.334 41.046 14.686H41.112L41.508 15.346H41.178C41.266 15.522 41.354 15.698 41.442 15.874C41.53 16.006 41.596 16.16 41.64 16.336H42.102L42.3 16.996H43.554L43.62 17.458V17.656H44.742C44.742 17.832 44.698 18.052 44.61 18.316C44.302 18.932 43.862 19.24 43.29 19.24H32.202C31.762 19.24 31.344 19.152 30.948 18.976C30.596 18.756 30.244 18.536 29.892 18.316C29.584 18.096 29.232 17.876 28.836 17.656H27.714C27.274 17.392 26.79 17.26 26.262 17.26C25.822 17.26 25.47 17.392 25.206 17.656H22.302C22.082 17.876 21.972 18.096 21.972 18.316H25.074C25.074 18.536 25.118 18.756 25.206 18.976C25.294 19.196 25.492 19.416 25.8 19.636H21.444C21.664 19.724 21.906 19.834 22.17 19.966C22.434 20.098 22.764 20.208 23.16 20.296H23.094C23.622 20.472 24.282 20.626 25.074 20.758C25.91 20.89 26.878 21.044 27.978 21.22C28.066 21.22 28.132 21.242 28.176 21.286C28.264 21.286 28.33 21.286 28.374 21.286H34.182C34.71 21.374 35.216 21.484 35.7 21.616C36.228 21.704 36.712 21.814 37.152 21.946H34.05C34.226 21.99 34.38 22.034 34.512 22.078C34.688 22.122 34.864 22.188 35.04 22.276H34.644C35.216 22.452 35.722 22.65 36.162 22.87C36.646 23.09 37.108 23.332 37.548 23.596H38.538L39.594 24.256H36.756C36.976 24.432 37.196 24.608 37.416 24.784C37.636 24.916 37.834 25.07 38.01 25.246H39.858L40.188 25.576H39.594L39.924 25.906H41.244C41.728 26.39 42.08 26.83 42.3 27.226H42.432C42.564 27.402 42.674 27.578 42.762 27.754C42.85 27.886 42.938 28.04 43.026 28.216H42.762C42.85 28.436 42.938 28.656 43.026 28.876C43.158 29.096 43.246 29.316 43.29 29.536H43.092L43.224 29.866H42.96C43.004 29.954 43.026 30.064 43.026 30.196C43.026 30.328 43.048 30.438 43.092 30.526H42.498C42.63 30.966 42.696 31.406 42.696 31.846H43.554V32.308C43.554 32.484 43.532 32.682 43.488 32.902C43.488 33.078 43.488 33.276 43.488 33.496H43.29C43.246 33.716 43.202 33.936 43.158 34.156C43.158 34.376 43.114 34.596 43.026 34.816H44.544C44.544 35.036 44.478 35.256 44.346 35.476H46.458C46.37 35.652 46.326 35.762 46.326 35.806H47.58C47.492 36.026 47.382 36.246 47.25 36.466C47.162 36.686 47.052 36.906 46.92 37.126Z" fill="#08FDD8" fill-opacity="0.55"/>
</mask>
</g>
</svg>
