<svg width="1077" height="1053" viewBox="0 0 1077 1053" fill="none" xmlns="http://www.w3.org/2000/svg">
<g filter="url(#filter0_f_43_34)">
<ellipse cx="539.5" cy="526.5" rx="437.5" ry="426.5" fill="#D9D9D9"/>
</g>
<g filter="url(#filter1_f_43_34)">
<ellipse cx="413.5" cy="392.5" rx="37.5" ry="39.5" fill="#817D7D" fill-opacity="0.5"/>
</g>
<g filter="url(#filter2_f_43_34)">
<ellipse cx="388.5" cy="585.5" rx="24.5" ry="21.5" fill="#817D7D" fill-opacity="0.5"/>
</g>
<g filter="url(#filter3_f_43_34)">
<ellipse cx="270.5" cy="342.5" rx="24.5" ry="21.5" fill="#817D7D" fill-opacity="0.5"/>
</g>
<g filter="url(#filter4_f_43_34)">
<ellipse cx="647.5" cy="414.5" rx="24.5" ry="21.5" fill="#817D7D" fill-opacity="0.5"/>
</g>
<g filter="url(#filter5_f_43_34)">
<ellipse cx="768.5" cy="476.5" rx="12.5" ry="11.5" fill="#817D7D" fill-opacity="0.5"/>
</g>
<g filter="url(#filter6_f_43_34)">
<ellipse cx="539.5" cy="211.5" rx="12.5" ry="11.5" fill="#817D7D" fill-opacity="0.5"/>
</g>
<g filter="url(#filter7_f_43_34)">
<ellipse cx="518.5" cy="453.5" rx="12.5" ry="11.5" fill="#817D7D" fill-opacity="0.5"/>
</g>
<g filter="url(#filter8_f_43_34)">
<ellipse cx="634.5" cy="738.5" rx="12.5" ry="11.5" fill="#817D7D" fill-opacity="0.5"/>
</g>
<g filter="url(#filter9_f_43_34)">
<ellipse cx="331.5" cy="738.5" rx="12.5" ry="11.5" fill="#817D7D" fill-opacity="0.5"/>
</g>
<g filter="url(#filter10_f_43_34)">
<ellipse cx="805.5" cy="705.5" rx="24.5" ry="21.5" fill="#817D7D" fill-opacity="0.5"/>
</g>
<g filter="url(#filter11_f_43_34)">
<ellipse cx="403" cy="845.5" rx="124" ry="85.5" fill="#686868"/>
</g>
<g filter="url(#filter12_f_43_34)">
<path fill-rule="evenodd" clip-rule="evenodd" d="M254.153 506.119C264.164 490.488 270 471.704 270 451.5C270 397.1 227.691 353 175.5 353C123.309 353 81 397.1 81 451.5C81 505.9 123.309 550 175.5 550C185.997 550 196.095 548.216 205.529 544.923C203.239 550.768 202 557.013 202 563.5C202 596.361 233.788 623 273 623C312.212 623 344 596.361 344 563.5C344 530.639 312.212 504 273 504C266.475 504 260.155 504.738 254.153 506.119Z" fill="#353030" fill-opacity="0.29"/>
</g>
<g filter="url(#filter13_f_43_34)">
<path fill-rule="evenodd" clip-rule="evenodd" d="M651.5 657.487C735.723 657.487 804 588.986 804 504.487C804 419.987 735.723 351.487 651.5 351.487C567.277 351.487 499 419.987 499 504.487C499 529.449 504.958 553.015 515.526 573.831C497.167 576.394 483 592.948 483 612.987C483 634.802 499.789 652.487 520.5 652.487C537.526 652.487 551.901 640.535 556.478 624.162C582.541 645.02 615.569 657.487 651.5 657.487Z" fill="#353030" fill-opacity="0.43"/>
</g>
<g filter="url(#filter14_f_43_34)">
<ellipse cx="364.5" cy="188.5" rx="55.5" ry="69.5" fill="#353030" fill-opacity="0.43"/>
</g>
<g filter="url(#filter15_f_43_34)">
<ellipse cx="714.5" cy="190.5" rx="66.5" ry="67.5" fill="#353030" fill-opacity="0.33"/>
</g>
<defs>
<filter id="filter0_f_43_34" x="2" y="0" width="1075" height="1053" filterUnits="userSpaceOnUse" color-interpolation-filters="sRGB">
<feFlood flood-opacity="0" result="BackgroundImageFix"/>
<feBlend mode="normal" in="SourceGraphic" in2="BackgroundImageFix" result="shape"/>
<feGaussianBlur stdDeviation="50" result="effect1_foregroundBlur_43_34"/>
</filter>
<filter id="filter1_f_43_34" x="352" y="329" width="123" height="127" filterUnits="userSpaceOnUse" color-interpolation-filters="sRGB">
<feFlood flood-opacity="0" result="BackgroundImageFix"/>
<feBlend mode="normal" in="SourceGraphic" in2="BackgroundImageFix" result="shape"/>
<feGaussianBlur stdDeviation="12" result="effect1_foregroundBlur_43_34"/>
</filter>
<filter id="filter2_f_43_34" x="340" y="540" width="97" height="91" filterUnits="userSpaceOnUse" color-interpolation-filters="sRGB">
<feFlood flood-opacity="0" result="BackgroundImageFix"/>
<feBlend mode="normal" in="SourceGraphic" in2="BackgroundImageFix" result="shape"/>
<feGaussianBlur stdDeviation="12" result="effect1_foregroundBlur_43_34"/>
</filter>
<filter id="filter3_f_43_34" x="222" y="297" width="97" height="91" filterUnits="userSpaceOnUse" color-interpolation-filters="sRGB">
<feFlood flood-opacity="0" result="BackgroundImageFix"/>
<feBlend mode="normal" in="SourceGraphic" in2="BackgroundImageFix" result="shape"/>
<feGaussianBlur stdDeviation="12" result="effect1_foregroundBlur_43_34"/>
</filter>
<filter id="filter4_f_43_34" x="599" y="369" width="97" height="91" filterUnits="userSpaceOnUse" color-interpolation-filters="sRGB">
<feFlood flood-opacity="0" result="BackgroundImageFix"/>
<feBlend mode="normal" in="SourceGraphic" in2="BackgroundImageFix" result="shape"/>
<feGaussianBlur stdDeviation="12" result="effect1_foregroundBlur_43_34"/>
</filter>
<filter id="filter5_f_43_34" x="732" y="441" width="73" height="71" filterUnits="userSpaceOnUse" color-interpolation-filters="sRGB">
<feFlood flood-opacity="0" result="BackgroundImageFix"/>
<feBlend mode="normal" in="SourceGraphic" in2="BackgroundImageFix" result="shape"/>
<feGaussianBlur stdDeviation="12" result="effect1_foregroundBlur_43_34"/>
</filter>
<filter id="filter6_f_43_34" x="503" y="176" width="73" height="71" filterUnits="userSpaceOnUse" color-interpolation-filters="sRGB">
<feFlood flood-opacity="0" result="BackgroundImageFix"/>
<feBlend mode="normal" in="SourceGraphic" in2="BackgroundImageFix" result="shape"/>
<feGaussianBlur stdDeviation="12" result="effect1_foregroundBlur_43_34"/>
</filter>
<filter id="filter7_f_43_34" x="482" y="418" width="73" height="71" filterUnits="userSpaceOnUse" color-interpolation-filters="sRGB">
<feFlood flood-opacity="0" result="BackgroundImageFix"/>
<feBlend mode="normal" in="SourceGraphic" in2="BackgroundImageFix" result="shape"/>
<feGaussianBlur stdDeviation="12" result="effect1_foregroundBlur_43_34"/>
</filter>
<filter id="filter8_f_43_34" x="598" y="703" width="73" height="71" filterUnits="userSpaceOnUse" color-interpolation-filters="sRGB">
<feFlood flood-opacity="0" result="BackgroundImageFix"/>
<feBlend mode="normal" in="SourceGraphic" in2="BackgroundImageFix" result="shape"/>
<feGaussianBlur stdDeviation="12" result="effect1_foregroundBlur_43_34"/>
</filter>
<filter id="filter9_f_43_34" x="295" y="703" width="73" height="71" filterUnits="userSpaceOnUse" color-interpolation-filters="sRGB">
<feFlood flood-opacity="0" result="BackgroundImageFix"/>
<feBlend mode="normal" in="SourceGraphic" in2="BackgroundImageFix" result="shape"/>
<feGaussianBlur stdDeviation="12" result="effect1_foregroundBlur_43_34"/>
</filter>
<filter id="filter10_f_43_34" x="757" y="660" width="97" height="91" filterUnits="userSpaceOnUse" color-interpolation-filters="sRGB">
<feFlood flood-opacity="0" result="BackgroundImageFix"/>
<feBlend mode="normal" in="SourceGraphic" in2="BackgroundImageFix" result="shape"/>
<feGaussianBlur stdDeviation="12" result="effect1_foregroundBlur_43_34"/>
</filter>
<filter id="filter11_f_43_34" x="255" y="736" width="296" height="219" filterUnits="userSpaceOnUse" color-interpolation-filters="sRGB">
<feFlood flood-opacity="0" result="BackgroundImageFix"/>
<feBlend mode="normal" in="SourceGraphic" in2="BackgroundImageFix" result="shape"/>
<feGaussianBlur stdDeviation="12" result="effect1_foregroundBlur_43_34"/>
</filter>
<filter id="filter12_f_43_34" x="57" y="329" width="311" height="318" filterUnits="userSpaceOnUse" color-interpolation-filters="sRGB">
<feFlood flood-opacity="0" result="BackgroundImageFix"/>
<feBlend mode="normal" in="SourceGraphic" in2="BackgroundImageFix" result="shape"/>
<feGaussianBlur stdDeviation="12" result="effect1_foregroundBlur_43_34"/>
</filter>
<filter id="filter13_f_43_34" x="459" y="327.487" width="369" height="354" filterUnits="userSpaceOnUse" color-interpolation-filters="sRGB">
<feFlood flood-opacity="0" result="BackgroundImageFix"/>
<feBlend mode="normal" in="SourceGraphic" in2="BackgroundImageFix" result="shape"/>
<feGaussianBlur stdDeviation="12" result="effect1_foregroundBlur_43_34"/>
</filter>
<filter id="filter14_f_43_34" x="285" y="95" width="159" height="187" filterUnits="userSpaceOnUse" color-interpolation-filters="sRGB">
<feFlood flood-opacity="0" result="BackgroundImageFix"/>
<feBlend mode="normal" in="SourceGraphic" in2="BackgroundImageFix" result="shape"/>
<feGaussianBlur stdDeviation="12" result="effect1_foregroundBlur_43_34"/>
</filter>
<filter id="filter15_f_43_34" x="624" y="99" width="181" height="183" filterUnits="userSpaceOnUse" color-interpolation-filters="sRGB">
<feFlood flood-opacity="0" result="BackgroundImageFix"/>
<feBlend mode="normal" in="SourceGraphic" in2="BackgroundImageFix" result="shape"/>
<feGaussianBlur stdDeviation="12" result="effect1_foregroundBlur_43_34"/>
</filter>
</defs>
</svg>
