<svg width="43" height="43" viewBox="0 0 43 43" fill="none" xmlns="http://www.w3.org/2000/svg">
<g filter="url(#filter0_b_43_3)">
<path d="M41.9552 35.126H39.2492C38.9852 35.566 38.6772 36.006 38.3252 36.446H39.5132C39.4692 36.534 39.3812 36.644 39.2492 36.776H36.3452C36.1692 36.952 35.9932 37.128 35.8172 37.304C35.6852 37.436 35.5092 37.59 35.2892 37.766H35.2232C35.0032 37.942 34.7612 38.118 34.4972 38.294C34.2772 38.426 34.0352 38.58 33.7712 38.756H32.5832C32.1872 39.02 31.7472 39.262 31.2632 39.482C30.7792 39.658 30.2952 39.856 29.8112 40.076H29.5472C29.4152 40.12 29.2612 40.164 29.0852 40.208C28.9532 40.252 28.7772 40.318 28.5572 40.406H36.0812C35.9052 40.45 35.7072 40.494 35.4872 40.538C35.3112 40.582 35.1132 40.648 34.8932 40.736H31.5932C31.0212 40.868 30.4272 40.978 29.8112 41.066C29.1952 41.198 28.5572 41.308 27.8972 41.396H25.9172C25.2132 41.484 24.4652 41.55 23.6732 41.594C22.8812 41.638 22.0452 41.66 21.1652 41.66C20.3292 41.66 19.5372 41.638 18.7892 41.594C18.0852 41.55 17.4032 41.484 16.7432 41.396H18.6572C18.0412 41.308 17.4472 41.198 16.8752 41.066C16.3032 40.978 15.7532 40.868 15.2252 40.736H18.5252L17.4032 40.406H9.87916C9.74716 40.318 9.59316 40.252 9.41716 40.208C9.28516 40.164 9.13116 40.12 8.95516 40.076H9.15316C8.66916 39.856 8.18516 39.636 7.70116 39.416C7.26116 39.196 6.82116 38.976 6.38116 38.756H7.56916C7.30516 38.58 7.04116 38.426 6.77716 38.294C6.55716 38.118 6.33716 37.942 6.11716 37.766H6.24916C6.02916 37.59 5.83116 37.436 5.65516 37.304C5.47916 37.128 5.30316 36.952 5.12716 36.776H7.96516C7.92116 36.688 7.87716 36.622 7.83316 36.578C7.78916 36.534 7.74516 36.49 7.70116 36.446H6.44716C6.27116 36.226 6.09516 36.006 5.91916 35.786C5.74316 35.566 5.56716 35.346 5.39116 35.126H8.16316C7.98716 34.906 7.85516 34.686 7.76716 34.466C7.67916 34.202 7.59116 33.982 7.50316 33.806H6.24916C6.16116 33.63 6.11716 33.52 6.11716 33.476H4.07116L3.87316 32.816H2.35516C2.31116 32.684 2.28916 32.486 2.28916 32.222C2.28916 31.87 2.31116 31.628 2.35516 31.496H2.81716C3.03716 30.968 3.38916 30.638 3.87316 30.506H3.74116C3.82916 30.462 3.98316 30.44 4.20316 30.44H15.9512C15.9952 30.44 16.0392 30.462 16.0832 30.506C16.1712 30.506 16.2372 30.506 16.2812 30.506H16.4132C16.7652 30.594 17.0732 30.726 17.3372 30.902C17.6452 31.078 17.9532 31.276 18.2612 31.496H17.8652C18.2172 31.716 18.5912 31.936 18.9872 32.156C19.3832 32.332 19.8452 32.42 20.3732 32.42C20.7252 32.42 21.0552 32.354 21.3632 32.222C21.6712 32.046 21.8472 31.804 21.8912 31.496H22.0892V31.43C22.0892 31.034 22.0012 30.726 21.8252 30.506C21.6492 30.242 21.3632 30.022 20.9672 29.846H20.1752C19.7352 29.626 19.1412 29.406 18.3932 29.186C17.6892 28.966 16.6992 28.746 15.4232 28.526H16.0172L14.9612 28.328C14.6092 28.24 14.2572 28.174 13.9052 28.13C13.5532 28.042 13.2012 27.954 12.8492 27.866H13.1132L11.9912 27.536H12.1232C11.5512 27.36 11.0012 27.162 10.4732 26.942C9.94516 26.722 9.43916 26.48 8.95516 26.216H9.21916L7.63516 25.226H7.50316C7.19516 25.006 6.90916 24.786 6.64516 24.566C6.42516 24.346 6.20516 24.126 5.98516 23.906H4.59916C4.55516 23.818 4.51116 23.752 4.46716 23.708C4.42316 23.664 4.37916 23.62 4.33516 23.576H4.92916C4.79716 23.444 4.70916 23.334 4.66516 23.246H2.81716L2.09116 22.256H4.92916L4.53316 21.596H3.60916C3.38916 21.112 3.21316 20.672 3.08116 20.276H3.47716C3.47716 20.188 3.45516 20.122 3.41116 20.078C3.41116 20.034 3.41116 19.99 3.41116 19.946H6.51316C6.51316 19.77 6.46916 19.55 6.38116 19.286H0.573156C0.573156 19.11 0.573156 18.956 0.573156 18.824C0.529156 18.648 0.485156 18.472 0.441156 18.296H0.507156L0.441156 17.636H4.86316C4.81916 17.548 4.79716 17.438 4.79716 17.306C4.79716 17.13 4.79716 16.976 4.79716 16.844C4.84116 16.668 4.86316 16.492 4.86316 16.316H1.76116L1.82716 15.656H4.79716L4.99516 14.996H3.67516C3.71916 14.908 3.76316 14.798 3.80716 14.666C3.85116 14.534 3.89516 14.424 3.93916 14.336H3.41116C3.49916 14.16 3.58716 14.006 3.67516 13.874C3.76316 13.698 3.82916 13.522 3.87316 13.346H4.13716L4.53316 12.686H4.46716C4.55516 12.51 4.66516 12.356 4.79716 12.224C4.92916 12.048 5.06116 11.872 5.19316 11.696C5.32516 11.52 5.45716 11.366 5.58916 11.234C5.72116 11.058 5.87516 10.882 6.05116 10.706H5.91916L6.24916 10.376H6.18316C6.22716 10.288 6.27116 10.222 6.31516 10.178C6.40316 10.134 6.46916 10.09 6.51316 10.046H6.64516L7.43716 9.386C7.52516 9.298 7.59116 9.232 7.63516 9.188C7.72316 9.144 7.81116 9.1 7.89916 9.056H6.64516C7.39316 8.572 8.20716 8.132 9.08716 7.736H11.1332C11.2652 7.648 11.3972 7.582 11.5292 7.538C11.6612 7.494 11.8152 7.45 11.9912 7.406H7.50316C7.67916 7.318 7.83316 7.252 7.96516 7.208C8.14116 7.164 8.31716 7.12 8.49316 7.076H11.3312C12.4312 6.724 13.5972 6.46 14.8292 6.284C16.1052 6.108 17.4472 6.02 18.8552 6.02C20.3072 6.02 21.6712 6.108 22.9472 6.284C24.2232 6.46 25.4112 6.724 26.5112 7.076H23.6732C23.8492 7.12 24.0032 7.164 24.1352 7.208C24.3112 7.252 24.4872 7.318 24.6632 7.406H29.0852L30.0092 7.736H27.9632C28.4472 7.912 28.9092 8.132 29.3492 8.396C29.7892 8.616 30.2072 8.836 30.6032 9.056H31.8572L32.3852 9.386H32.4512C32.6272 9.474 32.7812 9.584 32.9132 9.716C33.0892 9.848 33.2432 9.958 33.3752 10.046H33.3092L33.7052 10.376H33.7712L34.1672 10.706H34.2992C34.6952 11.014 35.0252 11.344 35.2892 11.696C35.6412 12.004 35.9052 12.334 36.0812 12.686H36.1472L36.5432 13.346H36.2132C36.3012 13.522 36.3892 13.698 36.4772 13.874C36.5652 14.006 36.6312 14.16 36.6752 14.336H37.1372L37.3352 14.996H38.5892L38.6552 15.458V15.656H39.7772C39.7772 15.832 39.7332 16.052 39.6452 16.316C39.3372 16.932 38.8972 17.24 38.3252 17.24H27.2372C26.7972 17.24 26.3792 17.152 25.9832 16.976C25.6312 16.756 25.2792 16.536 24.9272 16.316C24.6192 16.096 24.2672 15.876 23.8712 15.656H22.7492C22.3092 15.392 21.8252 15.26 21.2972 15.26C20.8572 15.26 20.5052 15.392 20.2412 15.656H17.3372C17.1172 15.876 17.0072 16.096 17.0072 16.316H20.1092C20.1092 16.536 20.1532 16.756 20.2412 16.976C20.3292 17.196 20.5272 17.416 20.8352 17.636H16.4792C16.6992 17.724 16.9412 17.834 17.2052 17.966C17.4692 18.098 17.7992 18.208 18.1952 18.296H18.1292C18.6572 18.472 19.3172 18.626 20.1092 18.758C20.9452 18.89 21.9132 19.044 23.0132 19.22C23.1012 19.22 23.1672 19.242 23.2112 19.286C23.2992 19.286 23.3652 19.286 23.4092 19.286H29.2172C29.7452 19.374 30.2512 19.484 30.7352 19.616C31.2632 19.704 31.7472 19.814 32.1872 19.946H29.0852C29.2612 19.99 29.4152 20.034 29.5472 20.078C29.7232 20.122 29.8992 20.188 30.0752 20.276H29.6792C30.2512 20.452 30.7572 20.65 31.1972 20.87C31.6812 21.09 32.1432 21.332 32.5832 21.596H33.5732L34.6292 22.256H31.7912C32.0112 22.432 32.2312 22.608 32.4512 22.784C32.6712 22.916 32.8692 23.07 33.0452 23.246H34.8932L35.2232 23.576H34.6292L34.9592 23.906H36.2792C36.7632 24.39 37.1152 24.83 37.3352 25.226H37.4672C37.5992 25.402 37.7092 25.578 37.7972 25.754C37.8852 25.886 37.9732 26.04 38.0612 26.216H37.7972C37.8852 26.436 37.9732 26.656 38.0612 26.876C38.1932 27.096 38.2812 27.316 38.3252 27.536H38.1272L38.2592 27.866H37.9952C38.0392 27.954 38.0612 28.064 38.0612 28.196C38.0612 28.328 38.0832 28.438 38.1272 28.526H37.5332C37.6652 28.966 37.7312 29.406 37.7312 29.846H38.5892V30.308C38.5892 30.484 38.5672 30.682 38.5232 30.902C38.5232 31.078 38.5232 31.276 38.5232 31.496H38.3252C38.2812 31.716 38.2372 31.936 38.1932 32.156C38.1932 32.376 38.1492 32.596 38.0612 32.816H39.5792C39.5792 33.036 39.5132 33.256 39.3812 33.476H41.4932C41.4052 33.652 41.3612 33.762 41.3612 33.806H42.6152C42.5272 34.026 42.4172 34.246 42.2852 34.466C42.1972 34.686 42.0872 34.906 41.9552 35.126Z" fill="#08FDD8"/>
</g>
<defs>
<filter id="filter0_b_43_3" x="-3.55884" y="2.02002" width="50.174" height="43.64" filterUnits="userSpaceOnUse" color-interpolation-filters="sRGB">
<feFlood flood-opacity="0" result="BackgroundImageFix"/>
<feGaussianBlur in="BackgroundImageFix" stdDeviation="2"/>
<feComposite in2="SourceAlpha" operator="in" result="effect1_backgroundBlur_43_3"/>
<feBlend mode="normal" in="SourceGraphic" in2="effect1_backgroundBlur_43_3" result="shape"/>
</filter>
</defs>
</svg>
